<?xml version="1.0" encoding="UTF-8" standalone="no"?>
<!-- Created with Inkscape (http://www.inkscape.org/) -->

<svg
   xmlns:dc="http://purl.org/dc/elements/1.1/"
   xmlns:cc="http://creativecommons.org/ns#"
   xmlns:rdf="http://www.w3.org/1999/02/22-rdf-syntax-ns#"
   xmlns:svg="http://www.w3.org/2000/svg"
   xmlns="http://www.w3.org/2000/svg"
   version="1.1"
   width="183.51917"
   height="79.237244"
   id="svg13172"
   xml:space="preserve"><metadata
     id="metadata13178"><rdf:RDF><cc:Work
         rdf:about=""><dc:format>image/svg+xml</dc:format><dc:type
           rdf:resource="http://purl.org/dc/dcmitype/StillImage" /><dc:title></dc:title></cc:Work></rdf:RDF></metadata><defs
     id="defs13176"><clipPath
       id="clipPath13186"><path
         d="m 0.029999,88.515 507.372001,0 0,-88.485 -507.372001,0 0,88.485 z"
         id="path13188" /></clipPath><clipPath
       id="clipPath13202"><path
         d="m 0.029999,725.669 507.372001,0 0,-725.639 -507.372001,0 0,725.639 z"
         id="path13204" /></clipPath></defs><g
     transform="matrix(1.25,0,0,-1.25,-199.72719,130.46357)"
     id="g13180"><g
       transform="matrix(1.4359451,0,0,1.4359451,-133.65952,-17.865494)"
       id="g13311"><g
         transform="translate(238.5811,62.266059)"
         id="g13214"><path
           d="m 0,0 c -0.823,2.732 -3.363,4.714 -6.364,4.714 -2.99,0 -5.519,-1.997 -6.358,-4.699 L 0,0 z m -13.022,-1.92 c 0,-3.663 2.981,-6.633 6.658,-6.633 1.966,0 3.743,0.853 4.961,2.21 l 2.722,0 c -1.531,-2.645 -4.399,-4.418 -7.683,-4.418 -4.906,0 -8.878,3.958 -8.878,8.841 0,4.884 3.972,8.84 8.878,8.84 4.899,0 8.871,-3.956 8.871,-8.84"
           id="path13216"
           style="fill:#eb2426;fill-opacity:1;fill-rule:evenodd;stroke:none" /></g><g
         transform="translate(219.5981,62.266059)"
         id="g13218"><path
           d="m 0,0 c -0.825,2.732 -3.366,4.714 -6.372,4.714 -2.985,0 -5.512,-1.997 -6.355,-4.699 L 0,0 z m -13.028,-1.92 c 0,-3.663 2.985,-6.633 6.656,-6.633 1.973,0 3.743,0.853 4.961,2.21 l 2.728,0 c -1.536,-2.645 -4.405,-4.418 -7.689,-4.418 -4.901,0 -8.872,3.958 -8.872,8.841 0,4.884 3.971,8.84 8.872,8.84 4.899,0 8.876,-3.956 8.876,-8.84"
           id="path13220"
           style="fill:#eb2426;fill-opacity:1;fill-rule:evenodd;stroke:none" /></g><g
         transform="translate(286.2591,62.266059)"
         id="g13222"><path
           d="m 0,0 c -0.831,2.732 -3.366,4.714 -6.37,4.714 -2.988,0 -5.513,-1.997 -6.358,-4.699 L 0,0 z m -13.022,-1.92 c 0,-3.663 2.974,-6.633 6.652,-6.633 1.971,0 3.741,0.853 4.96,2.21 l 2.722,0 c -1.528,-2.645 -4.398,-4.418 -7.682,-4.418 -4.903,0 -8.874,3.958 -8.874,8.841 0,4.884 3.971,8.84 8.874,8.84 4.897,0 8.876,-3.956 8.876,-8.84"
           id="path13224"
           style="fill:#eb2426;fill-opacity:1;fill-rule:evenodd;stroke:none" /></g><g
         transform="translate(263.1231,55.932059)"
         id="g13226"><path
           d="m 0,0 c 0,-1.256 1.004,-2.276 2.241,-2.276 2.541,0 4.677,0.711 5.316,1.676 L 8.835,-2.082 C 7.566,-3.461 5.096,-4.395 2.241,-4.395 c -2.45,0 -4.446,1.965 -4.446,4.395 l -0.007,0 -0.01,11.016 0,0.01 -6.274,0 0,2.253 6.274,0 0,8.822 2.214,0 0,-8.822 3.417,0 0,-2.253 -3.403,0 -0.014,-0.01 0,-11.016"
           id="path13228"
           style="fill:#eb2426;fill-opacity:1;fill-rule:evenodd;stroke:none" /></g><g
         transform="translate(290.0011,60.362059)"
         id="g13230"><path
           d="m 0,0 c 0,4.884 3.968,8.848 8.868,8.848 3.286,0 6.159,-1.781 7.728,-4.466 l -2.725,0 C 12.612,5.778 10.843,6.633 8.868,6.633 5.197,6.633 2.216,3.664 2.216,0 l 0.002,-0.016 c 0,-3.663 2.979,-6.633 6.659,-6.633 1.97,0 3.735,0.853 4.961,2.21 l 2.727,0 C 15.028,-7.084 12.163,-8.858 8.877,-8.858 3.97,-8.858 0,-4.899 0,-0.016"
           id="path13232"
           style="fill:#eb2426;fill-opacity:1;fill-rule:evenodd;stroke:none" /></g><g
         transform="translate(246.1811,40.983059)"
         id="g13234"><path
           d="m 0,0 c 0.994,0.826 2.087,1.641 3.154,2.448 4.088,3.072 8.317,6.243 8.317,10.207 0,3.944 -4.216,7.114 -8.291,10.175 -3.712,2.783 -7.545,5.663 -7.545,8.652 0,2.97 3.821,5.845 7.519,8.623 1.745,1.308 3.51,2.633 4.969,4.028 l -2.89,0.01 C 4.219,43.306 3.119,42.479 2.025,41.658 -2.051,38.591 -6.267,35.425 -6.267,31.482 -6.267,27.519 -2.04,24.348 2.05,21.277 5.739,18.497 9.569,15.623 9.569,12.655 9.569,9.671 5.733,6.787 2.025,4.001 0.294,2.704 -1.457,1.384 -2.904,-0.002"
           id="path13236"
           style="fill:#eb2426;fill-opacity:1;fill-rule:evenodd;stroke:none" /></g></g></g></svg>