<svg xmlns:dc="http://purl.org/dc/elements/1.1/" xmlns:cc="http://creativecommons.org/ns#" xmlns:rdf="http://www.w3.org/1999/02/22-rdf-syntax-ns#" xmlns:svg="http://www.w3.org/2000/svg" xmlns="http://www.w3.org/2000/svg" version="1.1" width="183.5" height="79.2" xml:space="preserve"><style>.style0{fill:	#eb2426;fill-rule:	evenodd;}</style><metadata><rdf:RDF><cc:Work rdf:about=""><dc:format>image/svg+xml</dc:format><dc:type rdf:resource="http://purl.org/dc/dcmitype/StillImage"/><dc:title/></cc:Work></rdf:RDF></metadata><defs><clipPath><path d="m 0 88.5 507.4 0 0 -88.5 -507.4 0 0 88.5 z"/></clipPath><clipPath><path d="m 0 725.7 507.4 0 0 -725.6 -507.4 0 0 725.6 z"/></clipPath></defs><g transform="matrix(1.25,0,0,-1.25,-199.72719,130.46357)"><g transform="matrix(1.4359451,0,0,1.4359451,-133.65952,-17.865494)"><g><path d="m0 0c-0.8 2.7 -3.4 4.7 -6.4 4.7 -3 0 -5.5 -2 -6.4 -4.7L238.6 62.3 zm-13 -1.9c0 -3.7 3 -6.6 6.7 -6.6 2 0 3.7 0.9 5 2.2l2.7 0c-1.5 -2.6 -4.4 -4.4 -7.7 -4.4 -4.9 0 -8.9 4 -8.9 8.8 0 4.9 4 8.8 8.9 8.8 4.9 0 8.9 -4 8.9 -8.8" class="style0"/></g><g><path d="m0 0c-0.8 2.7 -3.4 4.7 -6.4 4.7 -3 0 -5.5 -2 -6.4 -4.7L219.6 62.3 zm-13 -1.9c0 -3.7 3 -6.6 6.7 -6.6 2 0 3.7 0.9 5 2.2l2.7 0c-1.5 -2.6 -4.4 -4.4 -7.7 -4.4 -4.9 0 -8.9 4 -8.9 8.8 0 4.9 4 8.8 8.9 8.8 4.9 0 8.9 -4 8.9 -8.8" class="style0"/></g><g><path d="m0 0c-0.8 2.7 -3.4 4.7 -6.4 4.7 -3 0 -5.5 -2 -6.4 -4.7L286.3 62.3 zm-13 -1.9c0 -3.7 3 -6.6 6.7 -6.6 2 0 3.7 0.9 5 2.2l2.7 0c-1.5 -2.6 -4.4 -4.4 -7.7 -4.4 -4.9 0 -8.9 4 -8.9 8.8 0 4.9 4 8.8 8.9 8.8 4.9 0 8.9 -4 8.9 -8.8" class="style0"/></g><g><path d="m0 0c0 -1.3 1 -2.3 2.2 -2.3 2.5 0 4.7 0.7 5.3 1.7L271.9 53.8 C270.7 52.4 268.2 51.5 265.3 51.5 c-2.5 0 -4.4 2 -4.4 4.4l-0 0 -0 11 0 0 -6.3 0 0 2.3 6.3 0 0 8.8 2.2 0 0 -8.8 3.4 0 0 -2.3 -3.4 0 -0 -0 0 -11" class="style0"/></g><g><path d="m0 0c0 4.9 4 8.8 8.9 8.8 3.3 0 6.2 -1.8 7.7 -4.5l-2.7 0C302.6 66.2 300.8 67 298.9 67 295.2 67 292.2 64.1 292.2 60.4 l0 -0c0 -3.7 3 -6.6 6.7 -6.6 2 0 3.7 0.9 5 2.2l2.7 0C305 53.3 302.2 51.5 298.9 51.5 294 51.5 290 55.5 290 60.4 " class="style0"/></g><g><path d="m0 0c1 0.8 2.1 1.6 3.2 2.4 4.1 3.1 8.3 6.2 8.3 10.2 0 3.9 -4.2 7.1 -8.3 10.2 -3.7 2.8 -7.5 5.7 -7.5 8.7 0 3 3.8 5.8 7.5 8.6 1.7 1.3 3.5 2.6 5 4l-2.9 0C250.4 84.3 249.3 83.5 248.2 82.7 244.1 79.6 239.9 76.4 239.9 72.5 239.9 68.5 244.2 65.3 248.2 62.3 251.9 59.5 255.8 56.6 255.8 53.7 255.8 50.7 251.9 47.8 248.2 45 246.5 43.7 244.7 42.4 243.3 41 " class="style0"/></g></g></g></svg>