<?xml version="1.0" encoding="utf-8"?>
<!-- Generator: Adobe Illustrator 14.0.0, SVG Export Plug-In . SVG Version: 6.00 Build 43363)  -->
<!DOCTYPE svg PUBLIC "-//W3C//DTD SVG 1.1//EN" "http://www.w3.org/Graphics/SVG/1.1/DTD/svg11.dtd">
<svg version="1.1" id="Ebene_1" xmlns="http://www.w3.org/2000/svg" xmlns:xlink="http://www.w3.org/1999/xlink" x="0px" y="0px"
	 width="437px" height="52px" viewBox="0 0 437 52" enable-background="new 0 0 437 52" xml:space="preserve">
<g>
	<rect y="0.703" fill="none" width="438.563" height="51.143"/>
	<path d="M2.109,1.128h9.879v1.688H3.832v5.402h8.086v1.688H3.832v6.773h8.086v1.688H2.109V1.128z"/>
	<path d="M14.965,1.128h1.723v15.574h6.633v1.664h-8.355V1.128z"/>
	<path d="M26.063,1.128h9.879v1.688h-8.156v5.402h8.086v1.688h-8.086v6.773h8.086v1.688h-9.809V1.128z"/>
	<path d="M54.973,4.328l-1.359,1.043c-0.75-0.977-1.65-1.717-2.701-2.221s-2.205-0.756-3.463-0.756c-1.375,0-2.648,0.33-3.82,0.99
		s-2.08,1.547-2.725,2.66S39.938,8.41,39.938,9.8c0,2.102,0.721,3.855,2.162,5.262s3.26,2.109,5.455,2.109
		c2.414,0,4.434-0.945,6.059-2.836l1.359,1.031c-0.859,1.094-1.932,1.939-3.217,2.537S49.035,18.8,47.449,18.8
		c-3.016,0-5.395-1.004-7.137-3.012c-1.461-1.695-2.191-3.742-2.191-6.141c0-2.523,0.885-4.646,2.654-6.369s3.986-2.584,6.65-2.584
		c1.609,0,3.063,0.318,4.359,0.955S54.145,3.179,54.973,4.328z"/>
	<path d="M56.719,2.816V1.128h9.445v1.688H62.32v15.551h-1.758V2.816H56.719z"/>
	<path d="M68.742,1.128h3.434c1.914,0,3.211,0.078,3.891,0.235c1.023,0.235,1.855,0.737,2.496,1.507s0.961,1.719,0.961,2.846
		c0,0.939-0.221,1.764-0.662,2.476c-0.441,0.712-1.072,1.25-1.893,1.613c-0.82,0.364-1.953,0.55-3.398,0.558l6.199,8.004h-2.131
		l-6.199-8.004h-0.974v8.004h-1.723V1.128z M70.465,2.816v5.859l2.97,0.023c1.15,0,2.001-0.109,2.553-0.328
		c0.552-0.218,0.982-0.568,1.291-1.049c0.31-0.48,0.464-1.018,0.464-1.611c0-0.578-0.157-1.104-0.47-1.576s-0.724-0.811-1.232-1.014
		c-0.508-0.203-1.354-0.305-2.535-0.305H70.465z"/>
	<path d="M82.969,1.128h1.723v17.238h-1.723V1.128z"/>
	<path d="M104.695,4.328l-1.359,1.043c-0.75-0.977-1.65-1.717-2.701-2.221s-2.205-0.756-3.463-0.756c-1.375,0-2.648,0.33-3.82,0.99
		s-2.08,1.547-2.725,2.66S89.66,8.41,89.66,9.8c0,2.102,0.721,3.855,2.162,5.262s3.26,2.109,5.455,2.109
		c2.414,0,4.434-0.945,6.059-2.836l1.359,1.031c-0.859,1.094-1.932,1.939-3.217,2.537S98.758,18.8,97.172,18.8
		c-3.016,0-5.395-1.004-7.137-3.012c-1.461-1.695-2.191-3.742-2.191-6.141c0-2.523,0.885-4.646,2.654-6.369s3.986-2.584,6.65-2.584
		c1.609,0,3.063,0.318,4.359,0.955S103.867,3.179,104.695,4.328z"/>
	<path d="M115.195,1.128l8.039,17.238h-1.861l-2.711-5.672h-7.426l-2.686,5.672h-1.922l8.145-17.238H115.195z M114.978,4.791
		l-2.954,6.24h5.894L114.978,4.791z"/>
	<path d="M125.906,1.128h1.723v15.574h6.633v1.664h-8.355V1.128z"/>
	<path d="M150.785,1.128h9.879v1.688h-8.156v5.402h8.086v1.688h-8.086v6.773h8.086v1.688h-9.809V1.128z"/>
	<path d="M163.652,18.367V1.128h0.375L175.5,14.342V1.128h1.699v17.238h-0.387L165.434,5.313v13.053H163.652z"/>
	<path d="M198.023,4.023l-1.336,1.266c-0.961-0.945-2.014-1.662-3.158-2.15s-2.26-0.732-3.346-0.732
		c-1.352,0-2.639,0.332-3.861,0.996s-2.17,1.564-2.842,2.701s-1.008,2.338-1.008,3.604c0,1.297,0.348,2.529,1.043,3.697
		s1.656,2.086,2.883,2.754s2.57,1.002,4.031,1.002c1.773,0,3.273-0.5,4.5-1.5s1.953-2.297,2.18-3.891h-5.496v-1.664h7.43
		c-0.016,2.664-0.807,4.779-2.373,6.346s-3.662,2.35-6.287,2.35c-3.188,0-5.711-1.086-7.57-3.258
		c-1.43-1.672-2.145-3.605-2.145-5.801c0-1.633,0.41-3.152,1.23-4.559s1.945-2.506,3.375-3.299s3.047-1.189,4.852-1.189
		c1.461,0,2.836,0.264,4.125,0.791S196.797,2.859,198.023,4.023z"/>
	<path d="M202.078,1.128h1.723v17.238h-1.723V1.128z"/>
	<path d="M207.762,18.367V1.128h0.375l11.473,13.214V1.128h1.699v17.238h-0.387L209.543,5.313v13.053H207.762z"/>
	<path d="M225.516,1.128h9.879v1.688h-8.156v5.402h8.086v1.688h-8.086v6.773h8.086v1.688h-9.809V1.128z"/>
	<path d="M238.383,1.128h9.879v1.688h-8.156v5.402h8.086v1.688h-8.086v6.773h8.086v1.688h-9.809V1.128z"/>
	<path d="M251.332,1.128h3.434c1.914,0,3.211,0.078,3.891,0.235c1.023,0.235,1.855,0.737,2.496,1.507s0.961,1.719,0.961,2.846
		c0,0.939-0.221,1.764-0.662,2.476c-0.441,0.712-1.072,1.25-1.893,1.613c-0.82,0.364-1.953,0.55-3.398,0.558l6.199,8.004h-2.131
		l-6.2-8.004h-0.974v8.004h-1.723V1.128z M253.055,2.816v5.859l2.97,0.023c1.15,0,2.001-0.109,2.553-0.328
		c0.552-0.218,0.982-0.568,1.291-1.049c0.31-0.48,0.464-1.018,0.464-1.611c0-0.578-0.156-1.104-0.47-1.576
		c-0.313-0.473-0.724-0.811-1.232-1.014s-1.354-0.305-2.535-0.305H253.055z"/>
	<path d="M265.559,1.128h1.723v17.238h-1.723V1.128z"/>
	<path d="M271.242,18.367V1.128h0.375l11.473,13.214V1.128h1.699v17.238h-0.387L273.023,5.313v13.053H271.242z"/>
	<path d="M305.613,4.023l-1.336,1.266c-0.961-0.945-2.014-1.662-3.158-2.15s-2.26-0.732-3.346-0.732
		c-1.352,0-2.639,0.332-3.861,0.996s-2.17,1.564-2.842,2.701s-1.008,2.338-1.008,3.604c0,1.297,0.348,2.529,1.043,3.697
		s1.656,2.086,2.883,2.754s2.57,1.002,4.031,1.002c1.773,0,3.273-0.5,4.5-1.5s1.953-2.297,2.18-3.891h-5.496v-1.664h7.43
		c-0.016,2.664-0.807,4.779-2.373,6.346s-3.662,2.35-6.287,2.35c-3.188,0-5.711-1.086-7.57-3.258
		c-1.43-1.672-2.145-3.605-2.145-5.801c0-1.633,0.41-3.152,1.23-4.559s1.945-2.506,3.375-3.299s3.047-1.189,4.852-1.189
		c1.461,0,2.836,0.264,4.125,0.791S304.387,2.859,305.613,4.023z"/>
	<path d="M321.914,15.156l1.465-0.879c1.031,1.898,2.223,2.848,3.574,2.848c0.578,0,1.121-0.135,1.629-0.404s0.895-0.631,1.16-1.084
		s0.398-0.934,0.398-1.441c0-0.578-0.195-1.145-0.586-1.699c-0.539-0.766-1.523-1.688-2.953-2.766
		c-1.438-1.086-2.332-1.871-2.684-2.355c-0.609-0.813-0.914-1.691-0.914-2.637c0-0.75,0.18-1.434,0.539-2.051
		s0.865-1.104,1.518-1.459s1.361-0.533,2.127-0.533c0.813,0,1.572,0.201,2.279,0.604s1.455,1.143,2.244,2.221l-1.406,1.066
		c-0.648-0.859-1.201-1.426-1.658-1.699s-0.955-0.41-1.494-0.41c-0.695,0-1.264,0.211-1.705,0.633s-0.662,0.941-0.662,1.559
		c0,0.375,0.078,0.738,0.234,1.09s0.441,0.734,0.855,1.148c0.227,0.219,0.969,0.793,2.227,1.723c1.492,1.102,2.516,2.082,3.07,2.941
		s0.832,1.723,0.832,2.59c0,1.25-0.475,2.336-1.424,3.258s-2.104,1.383-3.463,1.383c-1.047,0-1.996-0.279-2.848-0.838
		S322.633,16.468,321.914,15.156z"/>
	<path d="M333.938,2.816V1.128h9.445v1.688h-3.844v15.551h-1.758V2.816H333.938z"/>
	<path d="M345.926,1.128h1.723v10.406c0,1.234,0.023,2.004,0.07,2.309c0.086,0.68,0.285,1.248,0.598,1.705s0.793,0.84,1.441,1.148
		s1.301,0.463,1.957,0.463c0.57,0,1.117-0.121,1.641-0.363s0.961-0.578,1.313-1.008s0.609-0.949,0.773-1.559
		c0.117-0.438,0.176-1.336,0.176-2.695V1.128h1.723v10.406c0,1.539-0.15,2.783-0.451,3.732s-0.902,1.775-1.805,2.479
		s-1.994,1.055-3.275,1.055c-1.391,0-2.582-0.332-3.574-0.996s-1.656-1.543-1.992-2.637c-0.211-0.672-0.316-1.883-0.316-3.633V1.128
		z"/>
	<path d="M361.582,18.367V1.128h3.574c2.578,0,4.449,0.207,5.613,0.621c1.672,0.586,2.979,1.602,3.92,3.047s1.412,3.168,1.412,5.168
		c0,1.727-0.373,3.246-1.119,4.559s-1.715,2.281-2.906,2.906s-2.861,0.938-5.01,0.938H361.582z M363.234,16.738h1.992
		c2.383,0,4.035-0.148,4.957-0.445c1.297-0.421,2.316-1.181,3.059-2.277s1.113-2.438,1.113-4.022c0-1.663-0.402-3.083-1.207-4.262
		s-1.926-1.986-3.363-2.424c-1.078-0.328-2.855-0.492-5.332-0.492h-1.219V16.738z"/>
	<path d="M379.453,1.128h9.879v1.688h-8.156v5.402h8.086v1.688h-8.086v6.773h8.086v1.688h-9.809V1.128z"/>
	<path d="M392.32,18.367V1.128h0.375l11.473,13.214V1.128h1.699v17.238h-0.387L394.102,5.313v13.053H392.32z"/>
	<path d="M408.352,2.816V1.128h9.445v1.688h-3.844v15.551h-1.758V2.816H408.352z"/>
	<path d="M418.5,15.156l1.465-0.879c1.031,1.898,2.223,2.848,3.574,2.848c0.578,0,1.121-0.135,1.629-0.404s0.895-0.631,1.16-1.084
		s0.398-0.934,0.398-1.441c0-0.578-0.195-1.145-0.586-1.699c-0.539-0.766-1.523-1.688-2.953-2.766
		c-1.438-1.086-2.332-1.871-2.684-2.355c-0.609-0.813-0.914-1.691-0.914-2.637c0-0.75,0.18-1.434,0.539-2.051
		s0.865-1.104,1.518-1.459s1.361-0.533,2.127-0.533c0.813,0,1.572,0.201,2.279,0.604s1.455,1.143,2.244,2.221l-1.406,1.066
		c-0.648-0.859-1.201-1.426-1.658-1.699s-0.955-0.41-1.494-0.41c-0.695,0-1.264,0.211-1.705,0.633s-0.662,0.941-0.662,1.559
		c0,0.375,0.078,0.738,0.234,1.09s0.441,0.734,0.855,1.148c0.227,0.219,0.969,0.793,2.227,1.723c1.492,1.102,2.516,2.082,3.07,2.941
		s0.832,1.723,0.832,2.59c0,1.25-0.475,2.336-1.424,3.258s-2.104,1.383-3.463,1.383c-1.047,0-1.996-0.279-2.848-0.838
		S419.219,16.468,418.5,15.156z"/>
	<path d="M434.484,0.695l0.914,0.516c-0.297,0.594-0.496,1.059-0.598,1.395s-0.18,0.77-0.234,1.301h1.043v3.223h-2.121V5.113
		c0-1.008,0.068-1.799,0.205-2.373S434.094,1.484,434.484,0.695z"/>
	<path d="M2.109,29.929h9.879v1.688H3.832v5.402h8.086v1.688H3.832v6.773h8.086v1.688H2.109V29.929z"/>
	<path d="M22.224,29.929h1.723v10.406c0,1.234,0.023,2.004,0.07,2.309c0.086,0.68,0.285,1.248,0.598,1.705s0.793,0.84,1.441,1.148
		s1.301,0.463,1.957,0.463c0.57,0,1.117-0.121,1.641-0.363s0.961-0.578,1.313-1.008s0.609-0.949,0.773-1.559
		c0.117-0.438,0.176-1.336,0.176-2.695V29.929h1.723v10.406c0,1.539-0.15,2.783-0.451,3.732s-0.902,1.775-1.805,2.479
		s-1.994,1.055-3.275,1.055c-1.391,0-2.582-0.332-3.574-0.996s-1.656-1.543-1.992-2.637c-0.211-0.672-0.316-1.883-0.316-3.633
		V29.929z"/>
	<path d="M45.173,29.929h3.434c1.914,0,3.211,0.079,3.891,0.235c1.023,0.234,1.855,0.736,2.496,1.508
		c0.641,0.77,0.961,1.719,0.961,2.845c0,0.938-0.221,1.765-0.662,2.476c-0.441,0.712-1.072,1.25-1.893,1.613
		c-0.82,0.364-1.953,0.55-3.398,0.558l6.199,8.004h-2.131l-6.199-8.004h-0.974v8.004h-1.723V29.929z M46.896,31.616v5.859
		l2.97,0.023c1.15,0,2.001-0.108,2.553-0.328c0.552-0.218,0.982-0.568,1.292-1.049c0.309-0.48,0.463-1.017,0.463-1.611
		c0-0.578-0.157-1.104-0.469-1.576c-0.313-0.473-0.724-0.811-1.233-1.014c-0.508-0.203-1.354-0.305-2.535-0.305H46.896z"/>
	<path d="M75.055,29.495c2.611,0,4.796,0.871,6.555,2.613c1.759,1.742,2.639,3.887,2.639,6.434c0,2.523-0.877,4.664-2.633,6.422
		c-1.755,1.758-3.895,2.637-6.42,2.637c-2.556,0-4.714-0.875-6.473-2.625c-1.759-1.75-2.638-3.867-2.638-6.352
		c0-1.656,0.401-3.191,1.202-4.605c0.802-1.414,1.894-2.521,3.278-3.322C71.947,29.896,73.444,29.495,75.055,29.495z M75.131,31.171
		c-1.275,0-2.484,0.333-3.627,0.997s-2.035,1.561-2.676,2.686c-0.642,1.126-0.962,2.381-0.962,3.765c0,2.048,0.71,3.778,2.13,5.19
		c1.42,1.41,3.132,2.116,5.135,2.116c1.338,0,2.576-0.325,3.715-0.974s2.027-1.536,2.665-2.662c0.638-1.125,0.957-2.377,0.957-3.753
		c0-1.368-0.319-2.605-0.957-3.712s-1.536-1.992-2.694-2.656C77.659,31.504,76.43,31.171,75.131,31.171z"/>
	<path d="M94.894,29.929h3.434c1.969,0,3.297,0.086,3.984,0.258c0.984,0.242,1.789,0.74,2.414,1.494s0.938,1.701,0.938,2.842
		c0,1.148-0.305,2.096-0.914,2.842s-1.449,1.248-2.52,1.506c-0.781,0.188-2.242,0.281-4.383,0.281h-1.23v8.016h-1.723V29.929z
		 M96.616,31.616v5.848l2.918,0.035c1.18,0,2.043-0.106,2.59-0.321s0.977-0.562,1.289-1.041s0.469-1.016,0.469-1.608
		c0-0.577-0.156-1.104-0.469-1.585c-0.313-0.479-0.725-0.82-1.236-1.023c-0.512-0.202-1.35-0.304-2.514-0.304H96.616z"/>
	<path d="M116.32,29.929h9.879v1.688h-8.156v5.402h8.086v1.688h-8.086v6.773h8.086v1.688h-9.809V29.929z"/>
	<path d="M143.419,29.929l8.039,17.238h-1.861l-2.711-5.672h-7.426l-2.686,5.672h-1.922l8.145-17.238H143.419z M143.201,33.592
		l-2.954,6.239h5.894L143.201,33.592z"/>
	<path d="M161.341,47.167V29.929h0.375l11.472,13.214V29.929h1.699v17.238h-0.387l-11.378-13.054v13.054H161.341z"/>
	<path d="M216.234,29.929l8.039,17.238h-1.86l-2.712-5.672h-7.426l-2.686,5.672h-1.922l8.145-17.238H216.234z M216.017,33.592
		l-2.953,6.239h5.893L216.017,33.592z"/>
	<path d="M232.364,43.956l1.465-0.879c1.031,1.898,2.223,2.848,3.574,2.848c0.578,0,1.121-0.135,1.629-0.404s0.895-0.631,1.16-1.084
		s0.398-0.934,0.398-1.441c0-0.578-0.195-1.145-0.586-1.699c-0.539-0.766-1.523-1.688-2.953-2.766
		c-1.438-1.086-2.332-1.871-2.684-2.355c-0.609-0.813-0.914-1.691-0.914-2.637c0-0.75,0.18-1.434,0.539-2.051
		s0.865-1.104,1.518-1.459s1.361-0.533,2.127-0.533c0.813,0,1.572,0.201,2.279,0.604s1.455,1.143,2.244,2.221l-1.406,1.066
		c-0.648-0.859-1.201-1.426-1.658-1.699s-0.955-0.41-1.494-0.41c-0.695,0-1.264,0.211-1.705,0.633s-0.662,0.941-0.662,1.559
		c0,0.375,0.078,0.738,0.234,1.09s0.441,0.734,0.855,1.148c0.227,0.219,0.969,0.793,2.227,1.723c1.492,1.102,2.516,2.082,3.07,2.941
		s0.832,1.723,0.832,2.59c0,1.25-0.475,2.336-1.424,3.258s-2.104,1.383-3.463,1.383c-1.047,0-1.996-0.279-2.848-0.838
		S233.083,45.269,232.364,43.956z"/>
	<path d="M251.518,43.956l1.465-0.879c1.031,1.898,2.223,2.848,3.574,2.848c0.578,0,1.121-0.135,1.629-0.404s0.895-0.631,1.16-1.084
		s0.398-0.934,0.398-1.441c0-0.578-0.195-1.145-0.586-1.699c-0.539-0.766-1.523-1.688-2.953-2.766
		c-1.438-1.086-2.332-1.871-2.684-2.355c-0.609-0.813-0.914-1.691-0.914-2.637c0-0.75,0.18-1.434,0.539-2.051
		s0.865-1.104,1.518-1.459s1.361-0.533,2.127-0.533c0.813,0,1.572,0.201,2.279,0.604s1.455,1.143,2.244,2.221l-1.406,1.066
		c-0.648-0.859-1.201-1.426-1.658-1.699s-0.955-0.41-1.494-0.41c-0.695,0-1.264,0.211-1.705,0.633s-0.662,0.941-0.662,1.559
		c0,0.375,0.078,0.738,0.234,1.09s0.441,0.734,0.855,1.148c0.227,0.219,0.969,0.793,2.227,1.723c1.492,1.102,2.516,2.082,3.07,2.941
		s0.832,1.723,0.832,2.59c0,1.25-0.475,2.336-1.424,3.258s-2.104,1.383-3.463,1.383c-1.047,0-1.996-0.279-2.848-0.838
		S252.236,45.269,251.518,43.956z"/>
	<path d="M280.66,29.495c2.611,0,4.796,0.871,6.555,2.613s2.639,3.887,2.639,6.434c0,2.523-0.878,4.664-2.633,6.422
		s-3.895,2.637-6.42,2.637c-2.557,0-4.714-0.875-6.473-2.625s-2.639-3.867-2.639-6.352c0-1.656,0.4-3.191,1.202-4.605
		c0.801-1.414,1.894-2.521,3.277-3.322S279.05,29.495,280.66,29.495z M280.736,31.171c-1.275,0-2.484,0.333-3.627,0.997
		s-2.034,1.561-2.677,2.686c-0.641,1.126-0.962,2.381-0.962,3.765c0,2.048,0.71,3.778,2.13,5.19c1.421,1.41,3.133,2.116,5.136,2.116
		c1.338,0,2.576-0.325,3.715-0.974s2.026-1.536,2.664-2.662c0.638-1.125,0.957-2.377,0.957-3.753c0-1.368-0.319-2.605-0.957-3.712
		s-1.535-1.992-2.693-2.656S282.035,31.171,280.736,31.171z"/>
	<path d="M316.565,33.128l-1.359,1.043c-0.75-0.977-1.65-1.717-2.701-2.221s-2.205-0.756-3.463-0.756c-1.375,0-2.648,0.33-3.82,0.99
		s-2.08,1.547-2.725,2.66s-0.967,2.365-0.967,3.756c0,2.102,0.721,3.855,2.162,5.262s3.26,2.109,5.455,2.109
		c2.414,0,4.434-0.945,6.059-2.836l1.359,1.031c-0.859,1.094-1.932,1.939-3.217,2.537s-2.721,0.896-4.307,0.896
		c-3.016,0-5.395-1.004-7.137-3.012c-1.461-1.695-2.191-3.742-2.191-6.141c0-2.523,0.885-4.646,2.654-6.369s3.986-2.584,6.65-2.584
		c1.609,0,3.063,0.318,4.359,0.955S315.737,31.979,316.565,33.128z"/>
	<path d="M326.977,29.929h1.723v17.238h-1.723V29.929z"/>
	<path d="M346.892,29.929l8.039,17.238h-1.86l-2.712-5.672h-7.426l-2.686,5.672h-1.922l8.145-17.238H346.892z M346.674,33.592
		l-2.954,6.239h5.894L346.674,33.592z"/>
	<path d="M363.092,31.616v-1.688h9.445v1.688h-3.844v15.551h-1.758V31.616H363.092z"/>
	<path d="M381.975,29.929h1.723v17.238h-1.723V29.929z"/>
	<path d="M403.056,29.495c2.611,0,4.796,0.871,6.555,2.613s2.639,3.887,2.639,6.434c0,2.523-0.878,4.664-2.633,6.422
		s-3.895,2.637-6.42,2.637c-2.557,0-4.714-0.875-6.473-2.625s-2.639-3.867-2.639-6.352c0-1.656,0.4-3.191,1.202-4.605
		c0.801-1.414,1.894-2.521,3.277-3.322S401.445,29.495,403.056,29.495z M403.132,31.171c-1.275,0-2.484,0.333-3.627,0.997
		s-2.035,1.561-2.676,2.686c-0.643,1.126-0.963,2.381-0.963,3.765c0,2.048,0.71,3.778,2.13,5.19c1.421,1.41,3.133,2.116,5.136,2.116
		c1.338,0,2.576-0.325,3.715-0.974s2.026-1.536,2.664-2.662c0.638-1.125,0.957-2.377,0.957-3.753c0-1.368-0.319-2.605-0.957-3.712
		s-1.535-1.992-2.693-2.656S404.431,31.171,403.132,31.171z"/>
	<path d="M422.918,47.167V29.929h0.375l11.473,13.214V29.929h1.699v17.238h-0.387l-11.379-13.054v13.054H422.918z"/>
</g>
</svg>
