<svg class="social" version="1.1" id="Layer_1" xmlns="http://www.w3.org/2000/svg" xmlns:xlink="http://www.w3.org/1999/xlink" x="0px" y="0px"
	 width="100px" height="100px" viewBox="0 0 100 100" enable-background="new 0 0 100 100" xml:space="preserve">
<g>
	<path id="google" d="M53.267,56.855l-4.533-3.522c-1.38-1.144-3.27-2.656-3.27-5.422c0-2.778,1.889-4.544,3.527-6.18
		c5.28-4.157,10.557-8.581,10.557-17.903c0-9.586-6.031-14.629-8.923-17.022h7.795l8.181-5.14H41.816
		c-6.801,0-16.603,1.608-23.779,7.533c-5.408,4.666-8.046,11.099-8.046,16.892c0,9.831,7.548,19.798,20.88,19.798
		c1.259,0,2.636-0.124,4.022-0.252c-0.623,1.515-1.252,2.777-1.252,4.917c0,3.905,2.006,6.299,3.774,8.567
		c-5.663,0.39-16.237,1.018-24.033,5.809c-7.424,4.415-9.684,10.84-9.684,15.376c0,9.335,8.8,18.029,27.045,18.029
		c21.636,0,33.089-11.971,33.089-23.823C63.834,65.804,58.803,61.519,53.267,56.855z M36.788,42.357
		c-10.824,0-15.727-13.992-15.727-22.434c0-3.288,0.623-6.682,2.763-9.333c2.019-2.524,5.533-4.162,8.814-4.162
		c10.434,0,15.846,14.118,15.846,23.197c0,2.271-0.251,6.296-3.144,9.207C43.317,40.853,39.931,42.357,36.788,42.357z
		 M36.912,93.053c-13.46,0-22.139-6.438-22.139-15.392c0-8.949,8.048-11.977,10.816-12.979c5.281-1.778,12.076-2.025,13.21-2.025
		c1.258,0,1.887,0,2.889,0.126c9.568,6.81,13.721,10.203,13.721,16.65C55.41,87.239,48.992,93.053,36.912,93.053z"/>
	<polygon points="85.036,42.165 85.036,29.56 78.811,29.56 78.811,42.165 66.226,42.165 66.226,48.459 78.811,48.459 78.811,61.142
		85.036,61.142 85.036,48.459 97.684,48.459 97.684,42.165 	"/>
</g>
</svg>
